HIERARCHY
ROOT Hips
{
	OFFSET -14.64140 90.27770 -84.91600
	CHANNELS 6 Xposition Yposition Zposition Zrotation Xrotation Yrotation
	JOINT Spine
	{
		OFFSET 0.00000 13.20850 -1.60436
		CHANNELS 3 Zrotation Xrotation Yrotation
		JOINT Spine1
		{
			OFFSET 0.00000 8.61716 0.00000
			CHANNELS 3 Zrotation Xrotation Yrotation
			JOINT Spine2
			{
				OFFSET 0.00000 8.61717 0.00000
				CHANNELS 3 Zrotation Xrotation Yrotation
				JOINT Spine3
				{
					OFFSET 0.00000 8.61717 0.00000
					CHANNELS 3 Zrotation Xrotation Yrotation
					JOINT Neck
					{
						OFFSET 0.00000 11.07920 1.10792
						CHANNELS 3 Zrotation Xrotation Yrotation
						JOINT Neck1
						{
							OFFSET 0.00000 7.08032 0.00000
							CHANNELS 3 Zrotation Xrotation Yrotation
							JOINT Head
							{
								OFFSET 0.00000 7.08031 0.00000
								CHANNELS 3 Zrotation Xrotation Yrotation
								End site
								{
									OFFSET 0.00000 0.00000 0.00000
								}
							}
						}
					}
					JOINT RightShoulder
					{
						OFFSET -0.01000 7.91373 5.19711
						CHANNELS 3 Zrotation Xrotation Yrotation
						JOINT RightArm
						{
							OFFSET -18.41580 0.00000 0.00000
							CHANNELS 3 Zrotation Xrotation Yrotation
							JOINT RightForeArm
							{
								OFFSET -29.11090 0.00000 0.00000
								CHANNELS 3 Zrotation Xrotation Yrotation
								JOINT RightHand
								{
									OFFSET -24.65040 0.00000 0.00000
									CHANNELS 3 Zrotation Xrotation Yrotation
									JOINT RightHandThumb1
									{
										OFFSET -5.35114 -0.85590 3.97906
										CHANNELS 3 Zrotation Xrotation Yrotation
										JOINT RightHandThumb2
										{
											OFFSET -4.52789 0.00000 0.00000
											CHANNELS 3 Zrotation Xrotation Yrotation
											JOINT RightHandThumb3
											{
												OFFSET -2.46976 0.00000 0.00000
												CHANNELS 3 Zrotation Xrotation Yrotation
												End site
												{
													OFFSET 0.00000 0.00000 0.00000
												}
											}
										}
									}
									JOINT RightHandIndex1
									{
										OFFSET -14.26970 0.00000 2.88139
										CHANNELS 3 Zrotation Xrotation Yrotation
										JOINT RightHandIndex2
										{
											OFFSET -5.48836 0.00000 0.00000
											CHANNELS 3 Zrotation Xrotation Yrotation
											JOINT RightHandIndex3
											{
												OFFSET -3.01859 0.00000 0.00000
												CHANNELS 3 Zrotation Xrotation Yrotation
												End site
												{
													OFFSET 0.00000 0.00000 0.00000
												}
											}
										}
									}
									JOINT RightHandMiddle1
									{
										OFFSET -14.26970 0.00000 -0.09147
										CHANNELS 3 Zrotation Xrotation Yrotation
										JOINT RightHandMiddle2
										{
											OFFSET -6.17441 0.00000 0.00000
											CHANNELS 3 Zrotation Xrotation Yrotation
											JOINT RightHandMiddle3
											{
												OFFSET -3.56743 0.00000 0.00000
												CHANNELS 3 Zrotation Xrotation Yrotation
												End site
												{
													OFFSET 0.00000 0.00000 0.00000
												}
											}
										}
									}
									JOINT RightHandRing1
									{
										OFFSET -12.69180 0.00000 -3.06433
										CHANNELS 3 Zrotation Xrotation Yrotation
										JOINT RightHandRing2
										{
											OFFSET -5.62556 0.00000 0.00000
											CHANNELS 3 Zrotation Xrotation Yrotation
											JOINT RightHandRing3
											{
												OFFSET -3.56744 0.00000 0.00000
												CHANNELS 3 Zrotation Xrotation Yrotation
												End site
												{
													OFFSET 0.00000 0.00000 0.00000
												}
											}
										}
									}
									JOINT RightHandPinky1
									{
										OFFSET -11.11390 0.00000 -6.03719
										CHANNELS 3 Zrotation Xrotation Yrotation
										JOINT RightHandPinky2
										{
											OFFSET -4.52789 0.00000 0.00000
											CHANNELS 3 Zrotation Xrotation Yrotation
											JOINT RightHandPinky3
											{
												OFFSET -2.46976 0.00000 0.00000
												CHANNELS 3 Zrotation Xrotation Yrotation
												End site
												{
													OFFSET 0.00000 0.00000 0.00000
												}
											}
										}
									}
								}
							}
						}
					}
					JOINT LeftShoulder
					{
						OFFSET 0.01000 7.91373 5.19711
						CHANNELS 3 Zrotation Xrotation Yrotation
						JOINT LeftArm
						{
							OFFSET 18.41580 0.00000 0.00000
							CHANNELS 3 Zrotation Xrotation Yrotation
							JOINT LeftForeArm
							{
								OFFSET 29.11090 0.00000 0.00000
								CHANNELS 3 Zrotation Xrotation Yrotation
								JOINT LeftHand
								{
									OFFSET 24.65040 0.00000 0.00000
									CHANNELS 3 Zrotation Xrotation Yrotation
									JOINT LeftHandThumb1
									{
										OFFSET 5.35114 -0.85590 3.97906
										CHANNELS 3 Zrotation Xrotation Yrotation
										JOINT LeftHandThumb2
										{
											OFFSET 4.52789 0.00000 0.00000
											CHANNELS 3 Zrotation Xrotation Yrotation
											JOINT LeftHandThumb3
											{
												OFFSET 2.46977 0.00000 0.00000
												CHANNELS 3 Zrotation Xrotation Yrotation
												End site
												{
													OFFSET 0.00000 0.00000 0.00000
												}
											}
										}
									}
									JOINT LeftHandIndex1
									{
										OFFSET 14.26970 0.00000 2.88139
										CHANNELS 3 Zrotation Xrotation Yrotation
										JOINT LeftHandIndex2
										{
											OFFSET 5.48836 0.00000 0.00000
											CHANNELS 3 Zrotation Xrotation Yrotation
											JOINT LeftHandIndex3
											{
												OFFSET 3.01859 0.00000 0.00000
												CHANNELS 3 Zrotation Xrotation Yrotation
												End site
												{
													OFFSET 0.00000 0.00000 0.00000
												}
											}
										}
									}
									JOINT LeftHandMiddle1
									{
										OFFSET 14.26970 0.00000 -0.09147
										CHANNELS 3 Zrotation Xrotation Yrotation
										JOINT LeftHandMiddle2
										{
											OFFSET 6.17440 0.00000 0.00000
											CHANNELS 3 Zrotation Xrotation Yrotation
											JOINT LeftHandMiddle3
											{
												OFFSET 3.56744 0.00000 0.00000
												CHANNELS 3 Zrotation Xrotation Yrotation
												End site
												{
													OFFSET 0.00000 0.00000 0.00000
												}
											}
										}
									}
									JOINT LeftHandRing1
									{
										OFFSET 12.69180 0.00000 -3.06433
										CHANNELS 3 Zrotation Xrotation Yrotation
										JOINT LeftHandRing2
										{
											OFFSET 5.62556 0.00000 0.00000
											CHANNELS 3 Zrotation Xrotation Yrotation
											JOINT LeftHandRing3
											{
												OFFSET 3.56744 0.00000 0.00000
												CHANNELS 3 Zrotation Xrotation Yrotation
												End site
												{
													OFFSET 0.00000 0.00000 0.00000
												}
											}
										}
									}
									JOINT LeftHandPinky1
									{
										OFFSET 11.11390 0.00000 -6.03719
										CHANNELS 3 Zrotation Xrotation Yrotation
										JOINT LeftHandPinky2
										{
											OFFSET 4.52789 0.00000 0.00000
											CHANNELS 3 Zrotation Xrotation Yrotation
											JOINT LeftHandPinky3
											{
												OFFSET 2.46976 0.00000 0.00000
												CHANNELS 3 Zrotation Xrotation Yrotation
												End site
												{
													OFFSET 0.00000 0.00000 0.00000
												}
											}
										}
									}
								}
							}
						}
					}
					JOINT pCube4
					{
						OFFSET 0.00000 10.91090 1.10792
						CHANNELS 3 Zrotation Xrotation Yrotation
						End site
						{
							OFFSET 0.00000 0.00000 0.00000
						}
					}
				}
			}
		}
	}
	JOINT RightUpLeg
	{
		OFFSET -9.98441 0.00000 0.00000
		CHANNELS 3 Zrotation Xrotation Yrotation
		JOINT RightLeg
		{
			OFFSET 0.00000 -42.11790 0.00000
			CHANNELS 3 Zrotation Xrotation Yrotation
			JOINT RightFoot
			{
				OFFSET 0.00000 -45.00020 -0.00001
				CHANNELS 3 Zrotation Xrotation Yrotation
				JOINT RightForeFoot
				{
					OFFSET 0.00000 -3.74820 0.00000
					CHANNELS 3 Zrotation Xrotation Yrotation
					JOINT RightToeBase
					{
						OFFSET 0.00000 0.06325 14.43120
						CHANNELS 3 Zrotation Xrotation Yrotation
						End site
						{
							OFFSET 0.00000 0.00000 0.00000
						}
					}
				}
			}
		}
	}
	JOINT LeftUpLeg
	{
		OFFSET 9.98441 0.00000 0.00000
		CHANNELS 3 Zrotation Xrotation Yrotation
		JOINT LeftLeg
		{
			OFFSET 0.00000 -42.11800 0.00000
			CHANNELS 3 Zrotation Xrotation Yrotation
			JOINT LeftFoot
			{
				OFFSET 0.00000 -45.00070 0.00000
				CHANNELS 3 Zrotation Xrotation Yrotation
				JOINT LeftForeFoot
				{
					OFFSET 0.00000 -3.74824 0.00000
					CHANNELS 3 Zrotation Xrotation Yrotation
					JOINT LeftToeBase
					{
						OFFSET 0.00000 0.06325 14.43110
						CHANNELS 3 Zrotation Xrotation Yrotation
						End site
						{
							OFFSET 0.00000 0.00000 0.00000
						}
					}
				}
			}
		}
	}
}
MOTION
Frames: 4
Frame Time: 0.050000
-0.028721193054710603 0.012252147013041604 -0.035172375933342 -0.047125132031999764 0.00996759308879685 -0.012058133651635557 -2.853527540031867 -0.1373163311640625 -0.9664648320878805 -0.26629665032867145 3.839673242026987 0.24711125132637216 -0.7118181500357225 -2.0576042753924075 -0.07360578521125118 -0.9867592167612175 -1.1487674967205252 -0.6072489878644466 -0.28757333671064705 13.061289394000784 -0.11534433567756555 0.9961577782216802 -0.48485917719250854 -0.19463955684477474 1.1774401860787949 -15.233031278581286 -0.08180707360997795 -0.5354663022331481 0.5334601500683597 -13.154413760181807 63.18721748113908 -0.5703903750912487 23.610513419367084 34.02744109905281 7.707854980938321 98.2876147023736 27.55762892863147 -0.020891646747068112 -7.695645674554733 4.508796795846547 -0.07727913578237555 -1.5942171972668184 -0.0056867027451253235 -0.003506823559463714 -56.26127024237178 0.040761376548628526 0.01589848063020765 -56.221910092824615 -38.78896475052356 0.0036833390488659325 -0.042618207514048094 0.03522133427861028 0.043028185140482116 0.01554271631101225 0.007856978634540112 0.04890298023567336 -0.015048793744424289 -36.732329654651885 0.017173616038452744 0.0023762560968320057 -0.00023587731699083265 -0.04581500077930521 -0.03736267741227428 0.034188507175498366 -0.024965812720284555 -0.04345119994462168 -19.752448750976892 -0.0360415396842371 -0.03751734626333183 -0.013250551714252176 0.03623049171213772 0.013348764675371973 -0.027644390325129133 0.040076913943084574 -0.030709770403390447 24.005419707621957 -0.04416186231614018 -0.0194981091481976 28.841905103281928 -0.003557619557857793 0.005434552314907419 28.828458847350184 0.01671000436098854 -0.020723696445694183 4.5930661278703875 1.300117370616963 12.260517507204563 -68.0769237829828 25.18378883097455 -26.956363159944214 -24.582367613183788 3.472512983378125 -97.44270374872299 -28.46955197537044 2.4204699571724655 -2.7253061387001107 -0.5018686769157017 0.0864118983089913 -8.16676865863244 0.0004492548344818063 -0.04483026811856964 44.61214972372425 0.030964640320711324 -0.038769050033386106 44.56477371650778 12.486479706831801 0.008272939364777677 -0.013213344662395866 0.02048910653663995 -0.03188216222659485 -0.016322692379427357 0.030355428925654706 0.011293219941014737 0.04522672447379916 11.08162859176269 0.003908360203694979 -0.04232198102708011 0.028888628271189053 -0.021811915598380627 0.006560847103480433 -0.046372815942556274 -0.02779529489649147 0.018133415669691937 4.810990841383699 0.002871454643533549 0.016381778473838246 -0.009259300200145768 -0.030576863677587125 -0.03818811181723479 -0.012101053525419367 -0.03839515395043355 -0.033932561958977654 -5.622996366314662 -0.018555329288181075 -0.03871592670208379 -6.682451537516956 -0.011190253582605721 0.001098252700380177 -6.7528882305573905 -0.012235194641858292 0.03098521688479869 0.03413495356674038 -0.03691745125469121 0.04309304963192373 8.028182859993068 3.511774148787144 -19.211795139675147 -0.04950863388705851 10.3849916192869 -0.008118582822554118 -5.5787036755717665 -15.671287761925376 3.21170113221963 0.015949736869612475 0.03771573187395875 -0.03751437647216363 0.020374730170186164 4.670054442751359 0.00820357568970723 12.467978934156383 -8.225095490198582 6.889563292153748 0.03998770570249357 46.40805029205008 0.008235974709219494 -4.315695088150115 -14.701146050075197 -3.810164353046701 -0.046567447143521415 0.0017893466816956054 0.0015298937482632498 -0.028453314114153062 -10.741255120812916 -0.012007775777385316 
0.03337099525343059 -0.002881656871733952 -0.021279501218594895 0.04475846009848181 0.010179243974447227 -0.018787978447017174 -2.6373855368615917 -0.1487450644491394 -0.988490428929042 -0.18532737693785223 3.775223120142008 0.24374424926602162 -0.7012484711863713 -2.072626412202119 -0.12164455353176415 -1.0066698412562018 -1.2223419332057963 -0.5424064779975035 -0.2836201751676327 13.108137698374751 -0.1796862238050764 1.0662111911024297 -0.439494472121042 -0.0163191046221891 1.1659853086617333 -15.18243563416486 -0.0620360762637714 -0.5061076945523442 0.6005762352343033 -13.359293128598202 64.23210010899777 -0.7763750931127709 22.659889635185284 32.12733793406631 7.824230397898316 98.72273471386815 26.763838249005687 -0.08005225876390729 -7.1011982114217655 4.50891252606104 -0.10781888178606398 -1.6267077838606938 -0.017890443883372752 -0.037518740020933035 -56.220209338844 0.031068656391271085 -0.04172354539934761 -56.20280162785171 -38.80710321982621 0.01373196235835848 0.015825232047516933 -0.015261276809735554 -0.01678623064472093 0.03518738001908913 -0.0005528347956210688 0.04891980577826597 0.025955337257477697 -36.68615792479178 -0.027151266105860668 0.01257076986525913 -0.002266697562329289 0.029376873770483924 0.03506018353827024 0.02628343624120392 0.03753726062955192 0.014487590176046918 -19.769049669036676 -0.03673374931423109 -0.032552629538628794 0.018427514561748532 -0.03337690735661669 0.04103736797307703 0.022061915502336858 -0.02022451187574881 -0.01060384251832295 24.095042858190148 0.02274787983322144 0.03047321179836474 28.84555137009267 -0.02370630518596572 -0.022427185590799772 28.829290147588374 -0.02334849402140796 -0.04388204097961437 4.792918158544028 1.4098771139900748 12.330719464913122 -68.68532188670804 24.206301740368897 -27.02211394048444 -23.08748382975654 3.804227616339392 -97.18803563906464 -27.752093296340508 3.4355207036028315 -3.4821659407335988 -0.44627169995027877 0.04664610411738798 -8.13843560608894 0.043150484061488865 0.015695039146673924 44.61515972571208 -0.011471838348777526 0.014509094823691782 44.533655121790254 12.443209481843477 -0.03565712550389046 -0.0018884518670446446 -0.006528600339489765 0.005768161216615029 0.0060002395108393145 -0.02434468514223608 -0.01508528398297335 0.007693706051374724 11.154858701472653 -1.044454949358928e-05 0.02966341343081341 -0.0223849422626925 -0.02783431979227852 -0.026839966411245753 0.048019113961017726 -0.007223494765956619 -0.005652717654116764 4.75095685436327 0.020711956609756648 -0.026074392662085197 -0.021824624143028253 -0.030957305506219293 -0.03048902502076101 0.010683385571148604 0.028576300488152233 0.018856347037911086 -5.602855188305597 0.003143452677415047 -0.009991326613818656 -6.701355815982467 0.018484771459233506 -0.04896708389779579 -6.7143380310878085 0.021685602727397543 -0.04350028656646037 -0.0022725860893422264 0.03886777663110601 0.039554636187641344 8.005847484095266 3.514149439474976 -19.20000076932435 -0.009980244411185155 10.365309706989656 -0.01146716808048593 -5.603334992255765 -15.6238168073339 3.2300786389953 -0.04464051947291472 0.014749238282718187 0.02331421308289549 0.03925912795446548 4.693668998061466 -0.01793830967333289 12.476387867024684 -8.198509353627589 6.901742849726578 0.024462987860245138 46.3475963995168 0.03203974466650288 -4.276861513464297 -14.764919665118772 -3.816706059064555 0.030378607368112178 0.025139472573502242 -0.04981903176896375 -0.026728084307160293 -10.702090014355626 0.003721067187260967 
0.03224769779528496 0.04657378077102852 0.00039066066812273057 0.04479989769914635 -0.023768261797019647 0.022967947331652604 -2.3123647716875086 -0.21194538486154987 -1.0680854868792153 -0.2047846329414773 3.8189367770334663 0.27460126002505636 -0.6630972401068413 -2.1011381751580482 -0.10577399513723318 -1.0342509303345833 -1.219989234002202 -0.6105409159977534 -0.30739999420692404 13.17095041804024 -0.061904165452073924 1.0111314567205003 -0.34336061873349066 0.3098520791019567 1.2071465991652404 -15.12069633166058 -0.05952302953693059 -0.5873761631809833 0.6284893992287847 -13.479184786831711 65.27044629261087 -0.2942781048582442 21.72140998905808 31.028880584386258 7.994872459569426 99.19096003023627 26.023459678079284 -0.10634774542078076 -6.7294160160534835 4.51221221908841 -0.11835996603313584 -1.6160321184431428 -0.04711723689621691 -0.0320811963382179 -56.27428764195076 0.03672520736875276 0.003902250916069757 -56.270907946637706 -38.77851630994836 0.043694277444230496 0.022642686934310853 -0.0386432983270915 0.025380368113906256 0.00651199617286124 0.0010608250899660566 0.03500562249800295 -0.020598322138069985 -36.707439558103744 0.02932969114710439 -0.04528481858497057 -0.009392429028516266 -0.025510853957651878 0.0021406359476827687 0.028865712832974105 -0.021996446140710734 -0.006045277647179589 -19.78488175661325 0.018611707728542173 -0.007586354942651641 -0.007459149517577069 0.021634626453177676 0.008759401119115627 -0.028740639510961237 0.0067460640896824815 0.014713238792478003 24.07855858872973 0.017828679740632493 -0.0005769219040363215 28.833378349088647 0.013949941079769436 0.025597603170144846 28.87019483129898 0.022612492386930423 -0.014968079293997 5.109942122156426 1.4400616176639358 12.41054372666178 -69.66763195952828 22.820122457225857 -27.324541309583115 -23.586597480904615 4.504004785298297 -96.76228762347402 -26.850761307140175 4.2609539834576955 -4.025345083423569 -0.44007603719617283 0.09854022456173131 -8.168567106640964 0.014430880452617865 -0.030859321578000663 44.5471587890697 0.03412315598799537 -0.0005591509438904505 44.55116963480767 12.431689740901753 -0.031018078123481795 0.004624406287115971 0.04086812754218997 0.0030460107754316664 -0.001116805560746383 0.032877945992512154 0.03085914683474939 -0.03751561117218516 11.091834129400695 -0.04727638457615426 0.01613830044051524 -0.0046811940494663785 0.005140871227431864 -0.027678839304762698 0.030628441261398603 -0.0046271943696183995 -0.04988260562725317 4.778387754874785 -0.041579058657393336 0.009110828222726628 0.043028713064826016 0.0048261589708276705 -0.01633281351756308 0.011564561831066212 0.042664861499117794 -0.046496756318512814 -5.6397672735946935 -0.006144299248209304 -0.0047444504715848336 -6.728646145029162 -0.04696901876436396 0.0030527542435327118 -6.715068496281469 0.008200553381025358 -0.011244779419816192 -0.0265993841039852 -0.041166580029179986 -0.04963070745065886 8.03659290091673 3.4915765578758435 -19.23791363075675 -0.004462834331326656 10.388801120020098 0.04806741408628003 -5.57273532998823 -15.621173362560224 3.159327147014775 -0.04185486999669718 -0.021689224463796078 0.04253302554738181 -1.2949748783118111e-05 4.672390053723305 -0.02066033385928338 12.428037451268535 -8.197079614982725 6.87931070793087 0.040084319194021174 46.33175267224377 -0.010550860203695316 -4.2988707859007365 -14.721621987356492 -3.809090455081096 -0.040747693978504855 -0.024430469178228865 -0.019036263754409952 -0.0256092454375381 -10.726777144830704 -0.00961641701124496 
-0.019136826160189264 0.00919099194555873 0.008338930748403375 0.03293807947588677 0.02772405491044799 0.018615763482261533 -1.9028570421249058 -0.18919715005965754 -1.0867585994369422 -0.20916410850326334 3.749382007184293 0.2027826400828424 -0.6441372889715871 -2.061123503557375 -0.2035586828500229 -0.9969283841188682 -1.177077144411388 -0.514341313501216 -0.3245511352331178 13.25295457686384 -0.010694604739491548 1.0270202132915482 -0.288344990182103 0.5364993978984316 1.110594924865325 -15.035278563607552 -0.057680554660327704 -0.8009433641273215 0.6624227180856015 -13.53691742331142 66.25686710088425 0.34931950518387 21.09983682920989 30.362494807724797 8.214019883560265 99.58729389020786 25.28071448416266 -0.12035590579052952 -6.361195774900392 4.529285765385847 -0.16554238396902676 -1.6237463900821933 0.046588442620056666 0.0242619102585341 -56.23234978372355 -0.021682841069994796 -0.045049111900238664 -56.231820807830104 -38.78827277554682 0.014766958316352179 0.006010270669462882 -0.0063025491141375034 -0.024278812269057152 0.03649503616081608 -0.03442556960492749 -0.0193373623728929 0.029834878236518626 -36.689165425004845 0.021341708257387626 0.04852278353922575 0.01160717950168472 -0.019417019441062753 0.0009217059119060576 -0.01740933976647924 0.011975802813368098 -0.03013554173731756 -19.72508435957329 -0.025903741001812405 -0.009036124800133145 0.006845181511740449 0.027385901411804518 -0.03135662852164304 0.0022109118714613357 -0.033258564982630905 0.019804632785685634 24.058160672389864 0.006149410553441916 0.007436721784550182 28.818564076084964 0.00859828072165977 -0.010076765503206601 28.89490850081778 -0.02207736650978104 -0.028564326200707556 5.559138428910972 1.5036569281495373 12.534297423582029 -70.33367389324364 21.732389310574366 -27.848940520921595 -24.653453251222665 5.305508970925209 -96.40104395851289 -26.190460883311413 4.686639531877236 -4.263957101359641 -0.4570936854077597 0.023155600626851208 -8.10074420120618 0.00813671033524254 -0.016840117066250063 44.596590494679326 -0.019701432803250454 0.03989876906870483 44.54797085376407 12.482952490354558 0.007610157997269202 -0.016675599953179628 -0.01834321720022027 -0.029099145075476437 0.0008252948961076483 0.003932550669248923 -0.04520156133749374 0.007983961966344847 11.121463984651731 -0.03897324644777987 -0.048601564504671846 0.043977555830258315 0.006873338511320458 -0.011888045967027985 0.028137889812672887 0.03149641709533747 0.009428913646905878 4.781940347782079 0.001714691703859916 -0.0374256505872456 0.004385952675078402 -0.002497417578635877 -0.026264325852719206 0.020241124253099617 0.04288415831325076 -0.03598946716041306 -5.649167884448926 -0.013603950215281815 -0.0412477061816313 -6.726592760911303 0.003847605063063434 0.025425042341368945 -6.752500033762911 0.027411221707136564 -0.017201732826741627 0.01612435300557339 -0.006752824433734495 -0.015070073467195147 8.086781478874501 3.4820842265983614 -19.18080516003401 0.044370873913011886 10.404229940299278 -0.006394323606679041 -5.610081316285304 -15.642116964682838 3.1974174617835134 0.008371880845922672 0.0020883457277161956 0.001092014995322256 -0.02542979805173662 4.692459060503712 0.022512225216790218 12.433921676032796 -8.225133244468752 6.853866634203226 -0.028460440921965195 46.38558811346773 0.02863230606183041 -4.333746104101648 -14.703291628114064 -3.824568460341473 0.021494827048769018 0.03995428259670132 0.009523980477929456 -0.027589049886175703 -10.701565985965916 0.034836709583186666 
